<svg width="89" height="19" viewBox="0 0 89 19" fill="none" xmlns="http://www.w3.org/2000/svg">
  <path
    d="M0.0764987 11.592V0.456H3.1485V11.4C3.1485 13.92 4.5165 15.312 7.0125 15.312C9.5085 15.312 10.9005 13.896 10.9005 11.4V0.456H13.9725V11.592C13.9725 15.696 11.2845 18.288 7.0125 18.288C2.7645 18.288 0.0764987 15.72 0.0764987 11.592ZM19.7672 18H16.8392V6.144H19.5512L19.7912 7.68C20.5352 6.48 21.9752 5.784 23.5832 5.784C26.5592 5.784 28.0952 7.632 28.0952 10.704V18H25.1672V11.4C25.1672 9.408 24.1832 8.448 22.6712 8.448C20.8712 8.448 19.7672 9.696 19.7672 11.616V18ZM31.956 3.768C30.948 3.768 30.156 2.976 30.156 1.992C30.156 1.008 30.948 0.24 31.956 0.24C32.916 0.24 33.708 1.008 33.708 1.992C33.708 2.976 32.916 3.768 31.956 3.768ZM30.492 18V6.144H33.42V18H30.492ZM43.8131 18.288C38.7011 18.288 35.3891 14.736 35.3891 9.24C35.3891 3.792 38.8211 0.167999 43.9571 0.167999C48.1091 0.167999 51.2051 2.592 51.8051 6.36H48.5651C47.9651 4.32 46.2131 3.12 43.8851 3.12C40.6451 3.12 38.6051 5.472 38.6051 9.216C38.6051 12.936 40.6691 15.336 43.8851 15.336C46.2611 15.336 48.0851 14.088 48.6611 12.144H51.8531C51.1811 15.84 47.9651 18.288 43.8131 18.288ZM61.1361 6.096V8.808H60.0561C57.9441 8.808 56.6241 9.936 56.6241 12.24V18H53.6961V6.168H56.4561L56.6241 7.896C57.1281 6.72 58.2561 5.928 59.8401 5.928C60.2481 5.928 60.6561 5.976 61.1361 6.096ZM65.6972 18.312C63.1772 18.312 61.6412 16.848 61.6412 14.616C61.6412 12.432 63.2252 11.064 66.0332 10.848L69.5852 10.584V10.32C69.5852 8.712 68.6252 8.064 67.1372 8.064C65.4092 8.064 64.4492 8.784 64.4492 10.032H61.9532C61.9532 7.464 64.0652 5.784 67.2812 5.784C70.4732 5.784 72.4412 7.512 72.4412 10.8V18H69.8732L69.6572 16.248C69.1532 17.472 67.5452 18.312 65.6972 18.312ZM66.6572 16.104C68.4572 16.104 69.6092 15.024 69.6092 13.2V12.576L67.1372 12.768C65.3132 12.936 64.6172 13.536 64.6172 14.496C64.6172 15.576 65.3372 16.104 66.6572 16.104ZM73.6147 6.144H75.3187V4.704C75.3187 1.488 76.9987 0.144 79.3987 0.144C79.8547 0.144 80.4067 0.167999 80.9107 0.263999V2.76H79.8787C78.5587 2.76 78.2227 3.528 78.2227 4.704V6.144H83.2147V2.448H86.1427V6.144H88.4467V8.592H86.1427V18H83.2147V8.592H78.2227V18H75.3187V8.592H73.6147V6.144Z"
    fill="#374151" />
</svg>
  