<svg width="142" height="40" viewBox="0 0 142 40" fill="none" xmlns="http://www.w3.org/2000/svg">
  <rect x="0.583374" y="16" width="7.99999" height="7.99999" fill="#039855"/>
  <rect x="24.5834" y="24" width="8" height="7.99999" transform="rotate(180 24.5834 24)" fill="#027A48"/>
  <path d="M8.58337 16L16.5834 8V16L8.58337 24V16Z" fill="#A6F4C5"/>
  <path d="M16.5834 24L8.58339 32L8.58339 24L16.5834 16L16.5834 24Z" fill="#6CE9A6"/>
  <path d="M0.583374 16L16.5833 0V7.99999L8.58336 16H0.583374Z" fill="#32D583"/>
  <path d="M24.5834 24L8.58339 40L8.58339 32L16.5834 24L24.5834 24Z" fill="#12B76A"/>
  <path d="M42.0066 28.5666C40.7466 28.5666 39.5255 28.3877 38.3433 28.0299C37.1766 27.6722 36.2511 27.1977 35.5667 26.6066L36.6167 24.2499C37.2855 24.7788 38.1022 25.2144 39.0666 25.5566C40.0466 25.8833 41.0266 26.0466 42.0066 26.0466C43.22 26.0466 44.1222 25.8522 44.7133 25.4633C45.32 25.0744 45.6233 24.5611 45.6233 23.9233C45.6233 23.4566 45.4522 23.0755 45.11 22.7799C44.7833 22.4688 44.3633 22.2277 43.85 22.0566C43.3366 21.8855 42.6366 21.6911 41.75 21.4733C40.5055 21.1777 39.4944 20.8822 38.7166 20.5866C37.9544 20.2911 37.2933 19.8322 36.7333 19.2099C36.1889 18.5722 35.9167 17.7166 35.9167 16.6433C35.9167 15.7411 36.1578 14.9244 36.64 14.1933C37.1378 13.4466 37.8766 12.8555 38.8566 12.4199C39.8522 11.9844 41.0655 11.7666 42.4966 11.7666C43.4922 11.7666 44.4722 11.8911 45.4366 12.1399C46.4011 12.3888 47.2333 12.7466 47.9333 13.2133L46.9766 15.5699C46.2611 15.1499 45.5144 14.8311 44.7366 14.6133C43.9589 14.3955 43.2044 14.2866 42.4733 14.2866C41.2755 14.2866 40.3811 14.4888 39.79 14.8933C39.2144 15.2977 38.9266 15.8344 38.9266 16.5033C38.9266 16.9699 39.09 17.3511 39.4166 17.6466C39.7589 17.9422 40.1866 18.1755 40.7 18.3466C41.2133 18.5177 41.9133 18.7122 42.8 18.9299C44.0133 19.2099 45.0089 19.5055 45.7866 19.8166C46.5644 20.1122 47.2255 20.5711 47.77 21.1933C48.33 21.8155 48.61 22.6555 48.61 23.7133C48.61 24.6155 48.3611 25.4322 47.8633 26.1633C47.3811 26.8944 46.6422 27.4777 45.6466 27.9133C44.6511 28.3488 43.4378 28.5666 42.0066 28.5666Z" fill="#101828"/>
  <path d="M51.3378 15.8733H54.2545V28.3333H51.3378V15.8733ZM52.8078 13.8199C52.2789 13.8199 51.8356 13.6566 51.4778 13.3299C51.12 12.9877 50.9411 12.5677 50.9411 12.0699C50.9411 11.5722 51.12 11.1599 51.4778 10.8333C51.8356 10.4911 52.2789 10.3199 52.8078 10.3199C53.3367 10.3199 53.78 10.4833 54.1378 10.8099C54.4956 11.1211 54.6745 11.5177 54.6745 11.9999C54.6745 12.5133 54.4956 12.9488 54.1378 13.3066C53.7956 13.6488 53.3522 13.8199 52.8078 13.8199Z" fill="#101828"/>
  <path d="M61.9326 28.4966C60.9215 28.4966 59.9337 28.3644 58.9692 28.0999C58.0048 27.8355 57.2348 27.5011 56.6592 27.0966L57.7792 24.8799C58.3392 25.2533 59.0081 25.5566 59.7859 25.7899C60.5792 26.0077 61.357 26.1166 62.1192 26.1166C63.8615 26.1166 64.7326 25.6577 64.7326 24.7399C64.7326 24.3044 64.507 24.0011 64.0559 23.8299C63.6204 23.6588 62.9126 23.4955 61.9326 23.3399C60.9059 23.1844 60.0659 23.0055 59.4126 22.8033C58.7748 22.6011 58.2148 22.2511 57.7326 21.7533C57.2659 21.2399 57.0326 20.5322 57.0326 19.6299C57.0326 18.4477 57.5226 17.5066 58.5026 16.8066C59.4981 16.0911 60.8359 15.7333 62.5159 15.7333C63.3715 15.7333 64.227 15.8344 65.0826 16.0366C65.9381 16.2233 66.6381 16.4799 67.1826 16.8066L66.0626 19.0233C65.0048 18.4011 63.8148 18.0899 62.4926 18.0899C61.637 18.0899 60.9837 18.2222 60.5326 18.4866C60.097 18.7355 59.8792 19.0699 59.8792 19.4899C59.8792 19.9566 60.1126 20.2911 60.5792 20.4933C61.0615 20.6799 61.8004 20.8588 62.7959 21.0299C63.7915 21.1855 64.6081 21.3644 65.2459 21.5666C65.8837 21.7688 66.4281 22.1111 66.8792 22.5933C67.3459 23.0755 67.5792 23.7599 67.5792 24.6466C67.5792 25.8133 67.0737 26.7466 66.0626 27.4466C65.0515 28.1466 63.6748 28.4966 61.9326 28.4966Z" fill="#101828"/>
  <path d="M81.5298 15.8733L75.6965 29.3366C75.1521 30.6899 74.4909 31.6388 73.7132 32.1833C72.9354 32.7433 71.9943 33.0233 70.8898 33.0233C70.2676 33.0233 69.6532 32.9222 69.0465 32.7199C68.4398 32.5177 67.9421 32.2377 67.5532 31.8799L68.7198 29.7333C68.9998 29.9977 69.3265 30.2077 69.6998 30.3633C70.0887 30.5188 70.4776 30.5966 70.8665 30.5966C71.3798 30.5966 71.7998 30.4644 72.1265 30.1999C72.4687 29.9355 72.7798 29.4922 73.0598 28.8699L73.2698 28.3799L67.8332 15.8733H70.8665L74.7865 25.0899L78.7298 15.8733H81.5298Z" fill="#101828"/>
  <path d="M90.2594 15.7333C91.4727 15.7333 92.5539 15.9977 93.5027 16.5266C94.4672 17.0555 95.2216 17.8022 95.7661 18.7666C96.3105 19.7311 96.5827 20.8433 96.5827 22.1033C96.5827 23.3633 96.3105 24.4833 95.7661 25.4633C95.2216 26.4277 94.4672 27.1744 93.5027 27.7033C92.5539 28.2322 91.4727 28.4966 90.2594 28.4966C88.5794 28.4966 87.2494 27.9366 86.2694 26.8166V32.8599H83.3527V15.8733H86.1294V17.5066C86.6116 16.9155 87.2027 16.4722 87.9027 16.1766C88.6183 15.8811 89.4039 15.7333 90.2594 15.7333ZM89.9327 25.9999C91.0061 25.9999 91.885 25.6422 92.5694 24.9266C93.2694 24.2111 93.6194 23.2699 93.6194 22.1033C93.6194 20.9366 93.2694 19.9955 92.5694 19.2799C91.885 18.5644 91.0061 18.2066 89.9327 18.2066C89.2327 18.2066 88.6027 18.3699 88.0427 18.6966C87.4827 19.0077 87.0394 19.4588 86.7127 20.0499C86.3861 20.6411 86.2227 21.3255 86.2227 22.1033C86.2227 22.8811 86.3861 23.5655 86.7127 24.1566C87.0394 24.7477 87.4827 25.2066 88.0427 25.5333C88.6027 25.8444 89.2327 25.9999 89.9327 25.9999Z" fill="#101828"/>
  <path d="M106.419 15.7333C107.99 15.7333 109.25 16.1922 110.199 17.1099C111.148 18.0277 111.622 19.3888 111.622 21.1933V28.3333H108.705V21.5666C108.705 20.4777 108.449 19.6611 107.935 19.1166C107.422 18.5566 106.691 18.2766 105.742 18.2766C104.669 18.2766 103.821 18.6033 103.199 19.2566C102.577 19.8944 102.265 20.8199 102.265 22.0333V28.3333H99.3488V11.0199H102.265V17.3199C102.748 16.8066 103.339 16.4177 104.039 16.1533C104.754 15.8733 105.548 15.7333 106.419 15.7333Z" fill="#101828"/>
  <path d="M127.385 15.8733V28.3333H124.609V26.7466C124.142 27.3066 123.559 27.7422 122.859 28.0533C122.159 28.3488 121.404 28.4966 120.595 28.4966C118.931 28.4966 117.617 28.0377 116.652 27.1199C115.703 26.1866 115.229 24.8099 115.229 22.9899V15.8733H118.145V22.5933C118.145 23.7133 118.394 24.5533 118.892 25.1133C119.405 25.6577 120.129 25.9299 121.062 25.9299C122.104 25.9299 122.929 25.6111 123.535 24.9733C124.158 24.3199 124.469 23.3866 124.469 22.1733V15.8733H127.385Z" fill="#101828"/>
  <path d="M135.054 28.4966C134.043 28.4966 133.055 28.3644 132.091 28.0999C131.127 27.8355 130.357 27.5011 129.781 27.0966L130.901 24.8799C131.461 25.2533 132.13 25.5566 132.908 25.7899C133.701 26.0077 134.479 26.1166 135.241 26.1166C136.983 26.1166 137.854 25.6577 137.854 24.7399C137.854 24.3044 137.629 24.0011 137.178 23.8299C136.742 23.6588 136.034 23.4955 135.054 23.3399C134.028 23.1844 133.188 23.0055 132.534 22.8033C131.897 22.6011 131.337 22.2511 130.854 21.7533C130.388 21.2399 130.154 20.5322 130.154 19.6299C130.154 18.4477 130.644 17.5066 131.624 16.8066C132.62 16.0911 133.958 15.7333 135.638 15.7333C136.493 15.7333 137.349 15.8344 138.204 16.0366C139.06 16.2233 139.76 16.4799 140.304 16.8066L139.184 19.0233C138.127 18.4011 136.937 18.0899 135.614 18.0899C134.759 18.0899 134.105 18.2222 133.654 18.4866C133.219 18.7355 133.001 19.0699 133.001 19.4899C133.001 19.9566 133.234 20.2911 133.701 20.4933C134.183 20.6799 134.922 20.8588 135.918 21.0299C136.913 21.1855 137.73 21.3644 138.368 21.5666C139.005 21.7688 139.55 22.1111 140.001 22.5933C140.468 23.0755 140.701 23.7599 140.701 24.6466C140.701 25.8133 140.195 26.7466 139.184 27.4466C138.173 28.1466 136.797 28.4966 135.054 28.4966Z" fill="#101828"/>
  </svg>
  