<svg width="162" height="66" viewBox="0 0 162 66" fill="none" xmlns="http://www.w3.org/2000/svg">
  <g clip-path="url(#clip0_6_211)">
  <path d="M42.433 19.0513H31.4229V45.3823L42.433 19.0513Z" fill="#9CA3AF"/>
  <path d="M50.1802 19.0513H61.1759V45.3823L50.1802 19.0513Z" fill="#9CA3AF"/>
  <path d="M46.3056 28.7562L53.3133 45.3826H48.7156L46.6212 40.0891H41.4927L46.3056 28.7562Z" fill="#9CA3AF"/>
  <path d="M79.1375 35.7956L80.4358 39.5182C80.4788 39.6115 80.5433 39.6545 80.6581 39.6545H83.1542C83.2905 39.6545 83.312 39.5899 83.2905 39.4537L78.1333 25.1298C78.1118 25.015 78.0903 24.9935 77.9755 24.9935H74.8769C74.7908 24.9935 74.7406 25.058 74.7406 25.1513C74.6976 25.9044 74.633 26.1339 74.5398 26.3563L69.9421 39.4321C69.9206 39.5899 69.9708 39.6545 70.0999 39.6545H72.3306C72.4669 39.6545 72.5314 39.6115 72.5816 39.4752L73.8082 35.7956H79.1375ZM74.5183 33.364C75.1925 31.327 76.0819 28.7161 76.4406 27.2242H76.4621C76.9068 28.7878 77.954 31.8864 78.4274 33.364H74.5183Z" fill="#9CA3AF"/>
  <path d="M89.9202 39.8761C91.2615 39.8761 92.6888 39.6323 94.1377 39.0082C94.2525 38.9652 94.274 38.915 94.274 38.8074C94.231 38.4057 94.1808 37.8247 94.1808 37.38V23.8953C94.1808 23.8093 94.1808 23.7662 94.0732 23.7662H91.6416C91.5484 23.7662 91.5054 23.8093 91.5054 23.924V28.4931C91.1252 28.45 90.8598 28.4285 90.5442 28.4285C86.6207 28.4285 84.2107 31.0178 84.2107 34.2527C84.2107 38.0041 86.6853 39.8761 89.9202 39.8761ZM91.5053 37.38C91.1037 37.5091 90.659 37.5594 90.2071 37.5594C88.4282 37.5594 86.9722 36.5552 86.9722 34.1165C86.9722 31.9575 88.4713 30.6807 90.4581 30.6807C90.8598 30.6807 91.2113 30.7238 91.5053 30.8385V37.38Z" fill="#9CA3AF"/>
  <path d="M102.03 28.4283C98.6808 28.4283 96.6079 30.9961 96.6079 34.1664C96.6079 36.9996 98.2576 39.8759 101.98 39.8759C105.129 39.8759 107.338 37.5591 107.338 34.0947C107.338 31.0391 105.466 28.4283 102.03 28.4283ZM101.894 30.6805C103.788 30.6805 104.591 32.3087 104.591 34.1664C104.591 36.4617 103.408 37.6021 102.03 37.6021C100.331 37.6021 99.3264 36.1748 99.3264 34.1162C99.3264 32.0003 100.395 30.6805 101.894 30.6805Z" fill="#9CA3AF"/>
  <path d="M109.853 23.7662C109.759 23.7662 109.695 23.8093 109.695 23.924V39.1876C109.695 39.2521 109.759 39.3669 109.853 39.3884C110.921 39.7183 112.04 39.8761 113.195 39.8761C116.502 39.8761 119.715 37.8247 119.715 33.6933C119.715 30.7022 117.664 28.4285 114.45 28.4285C113.712 28.4285 113.023 28.5433 112.42 28.7441L112.392 23.9456C112.392 23.7878 112.349 23.7662 112.191 23.7662H109.853ZM116.968 33.9658C116.968 36.4404 115.275 37.6024 113.446 37.6024C113.066 37.6024 112.729 37.5809 112.42 37.4876V30.9748C112.772 30.8385 113.195 30.7238 113.977 30.7238C115.741 30.7238 116.968 31.8427 116.968 33.9658Z" fill="#9CA3AF"/>
  <path d="M128.79 34.7689C129.88 34.7689 130.777 34.7474 131.085 34.6757C131.2 34.6542 131.243 34.6111 131.265 34.5179C131.329 34.274 131.358 33.7648 131.358 33.1407C131.358 31.0176 130.081 28.4283 126.782 28.4283C123.411 28.4283 121.538 31.1754 121.538 34.274C121.538 37.0212 122.987 39.8759 127.047 39.8759C128.568 39.8759 129.55 39.632 130.397 39.2304C130.483 39.1873 130.526 39.1156 130.526 38.9865V37.1288C130.526 37.0212 130.461 36.9996 130.397 37.0427C129.55 37.4013 128.632 37.5806 127.628 37.5806C125.354 37.5806 124.321 36.3254 124.257 34.7689H128.79ZM124.257 32.8466C124.436 31.7564 125.125 30.5729 126.667 30.5729C128.367 30.5729 128.812 32.0003 128.812 32.6458C128.812 32.6673 128.812 32.7606 128.812 32.8251C128.718 32.8466 128.431 32.8466 127.585 32.8466H124.257Z" fill="#9CA3AF"/>
  </g>
  <defs>
  <clipPath id="clip0_6_211">
  <rect width="100.058" height="36.1111" fill="white" transform="translate(31.4229 14.5375)"/>
  </clipPath>
  </defs>
  </svg>
  