<svg width="162" height="66" viewBox="0 0 162 66" fill="none" xmlns="http://www.w3.org/2000/svg">
  <g clip-path="url(#clip0_6_207)">
  <path fill-rule="evenodd" clip-rule="evenodd" d="M90.401 42.9794C85.6136 46.5081 78.6746 48.3908 72.7002 48.3908C64.3231 48.3908 56.7816 45.2925 51.0762 40.1393C50.6279 39.7341 51.0296 39.1818 51.5675 39.4974C57.7247 43.0799 65.338 45.2351 73.2022 45.2351C78.506 45.2351 84.3406 44.1377 89.7053 41.8606C90.5158 41.5163 91.1935 42.3913 90.401 42.9794Z" fill="#9CA3AF"/>
  <path fill-rule="evenodd" clip-rule="evenodd" d="M92.3913 40.7023C91.7817 39.9206 88.3463 40.333 86.8043 40.5158C86.3345 40.5732 86.2628 40.1644 86.6859 39.8704C89.4221 37.9446 93.9118 38.5005 94.4354 39.146C94.959 39.795 94.2991 44.2956 91.7279 46.4436C91.3334 46.7735 90.9569 46.5978 91.1326 46.1603C91.71 44.7187 93.0046 41.4877 92.3913 40.7023Z" fill="#9CA3AF"/>
  <path fill-rule="evenodd" clip-rule="evenodd" d="M86.9131 26.2763V24.4044C86.9131 24.1211 87.1282 23.931 87.3864 23.931H95.7671C96.036 23.931 96.2512 24.1247 96.2512 24.4044V26.0074C96.2476 26.2763 96.0217 26.6278 95.6201 27.1836L91.2773 33.3839C92.8911 33.3445 94.5944 33.5847 96.0576 34.4095C96.3875 34.596 96.4771 34.8685 96.5022 35.1375V37.1349C96.5022 37.4075 96.201 37.7266 95.8854 37.5617C93.307 36.2097 89.8823 36.0627 87.0314 37.576C86.7409 37.7338 86.4361 37.4182 86.4361 37.1457V35.2487C86.4361 34.9439 86.4397 34.4239 86.7445 33.9613L91.7758 26.7461H87.3972C87.1282 26.7461 86.9131 26.556 86.9131 26.2763Z" fill="#9CA3AF"/>
  <path fill-rule="evenodd" clip-rule="evenodd" d="M56.3418 37.9562H53.7921C53.5482 37.9382 53.3546 37.7554 53.3367 37.5223V24.4367C53.3367 24.1749 53.5554 23.9669 53.828 23.9669H56.2055C56.453 23.9777 56.6502 24.1677 56.6681 24.4044V26.115H56.7147C57.3351 24.4618 58.5006 23.6908 60.0713 23.6908C61.6671 23.6908 62.664 24.4618 63.3813 26.115C63.9981 24.4618 65.4002 23.6908 66.9028 23.6908C67.9714 23.6908 69.1405 24.1319 69.8541 25.1216C70.661 26.2226 70.496 27.8219 70.496 29.2241L70.4924 37.4828C70.4924 37.7446 70.2737 37.9562 70.0011 37.9562H67.455C67.2004 37.9382 66.996 37.7338 66.996 37.4828V30.5474C66.996 29.9951 67.0462 28.618 66.9243 28.0945C66.7342 27.2159 66.164 26.9685 65.4253 26.9685C64.8085 26.9685 64.163 27.3809 63.9012 28.0407C63.6395 28.7005 63.6646 29.805 63.6646 30.5474V37.4828C63.6646 37.7446 63.4458 37.9562 63.1733 37.9562H60.6272C60.369 37.9382 60.1681 37.7338 60.1681 37.4828L60.1646 30.5474C60.1646 29.0878 60.4048 26.9398 58.5939 26.9398C56.7614 26.9398 56.8331 29.034 56.8331 30.5474V37.4828C56.8331 37.7446 56.6143 37.9562 56.3418 37.9562Z" fill="#9CA3AF"/>
  <path fill-rule="evenodd" clip-rule="evenodd" d="M103.466 23.6908C107.25 23.6908 109.297 26.9398 109.297 31.0709C109.297 35.0622 107.034 38.2287 103.466 38.2287C99.7511 38.2287 97.7286 34.9797 97.7286 30.9311C97.7286 26.8573 99.7762 23.6908 103.466 23.6908ZM103.488 26.3624C101.609 26.3624 101.49 28.9229 101.49 30.5187C101.49 32.118 101.465 35.532 103.466 35.532C105.442 35.532 105.535 32.7779 105.535 31.0996C105.535 29.9951 105.489 28.6754 105.155 27.6283C104.868 26.7174 104.298 26.3624 103.488 26.3624Z" fill="#9CA3AF"/>
  <path fill-rule="evenodd" clip-rule="evenodd" d="M114.203 37.9562H111.664C111.41 37.9382 111.205 37.7338 111.205 37.4828L111.202 24.3937C111.223 24.1534 111.435 23.9669 111.693 23.9669H114.056C114.278 23.9777 114.461 24.1283 114.511 24.3327V26.3337H114.558C115.272 24.5443 116.272 23.6908 118.033 23.6908C119.177 23.6908 120.292 24.1032 121.009 25.2328C121.676 26.2799 121.676 28.0407 121.676 29.3066V37.5438C121.648 37.7733 121.436 37.9562 121.185 37.9562H118.628C118.395 37.9382 118.202 37.7661 118.176 37.5438V30.4362C118.176 29.0053 118.341 26.9111 116.581 26.9111C115.96 26.9111 115.39 27.3271 115.107 27.9582C114.748 28.7579 114.702 29.554 114.702 30.4362V37.4828C114.698 37.7446 114.476 37.9562 114.203 37.9562Z" fill="#9CA3AF"/>
  <path fill-rule="evenodd" clip-rule="evenodd" d="M80.2322 31.7056C80.2322 32.699 80.2573 33.5274 79.7553 34.4095C79.3501 35.1267 78.7046 35.5678 77.991 35.5678C77.012 35.5678 76.4382 34.8219 76.4382 33.721C76.4382 31.5478 78.3854 31.1534 80.2322 31.1534V31.7056ZM82.8035 37.9203C82.6349 38.0709 82.3911 38.0817 82.201 37.9813C81.3547 37.2784 81.2005 36.9521 80.7379 36.2815C79.3393 37.7087 78.346 38.1355 76.535 38.1355C74.3869 38.1355 72.7194 36.8122 72.7194 34.1621C72.7194 32.0929 73.8383 30.6836 75.4377 29.9951C76.8219 29.3854 78.7548 29.2779 80.2322 29.1093V28.7794C80.2322 28.1733 80.2789 27.4561 79.9203 26.9326C79.6119 26.4628 79.0166 26.2691 78.4894 26.2691C77.5176 26.2691 76.6533 26.7676 76.4418 27.8004C76.3987 28.0299 76.2302 28.2558 75.9971 28.2666L73.5263 28.0012C73.3183 27.9546 73.0852 27.7861 73.1462 27.4669C73.7128 24.4689 76.4238 23.5652 78.848 23.5652C80.0888 23.5652 81.7097 23.8952 82.6887 24.8347C83.9295 25.993 83.8111 27.5386 83.8111 29.2205V33.1938C83.8111 34.388 84.306 34.9116 84.7722 35.5571C84.9336 35.7866 84.9694 36.0627 84.7614 36.2348C84.2415 36.6688 83.3163 37.4756 82.807 37.9275L82.8035 37.9203Z" fill="#9CA3AF"/>
  <path fill-rule="evenodd" clip-rule="evenodd" d="M46.8064 31.7056C46.8064 32.699 46.8315 33.5273 46.3294 34.4095C45.9242 35.1267 45.2823 35.5678 44.5651 35.5678C43.5861 35.5678 43.0159 34.8219 43.0159 33.721C43.0159 31.5478 44.9632 31.1534 46.8064 31.1534V31.7056ZM49.3776 37.9203C49.2091 38.0709 48.9652 38.0817 48.7751 37.9812C47.9288 37.2784 47.7782 36.952 47.312 36.2815C45.9135 37.7087 44.9237 38.1354 43.1092 38.1354C40.9647 38.1354 39.2936 36.8122 39.2936 34.1621C39.2936 32.0929 40.416 30.6836 42.0118 29.9951C43.396 29.3854 45.3289 29.2779 46.8064 29.1093V28.7794C46.8064 28.1733 46.853 27.4561 46.498 26.9326C46.186 26.4628 45.5907 26.2691 45.0672 26.2691C44.0953 26.2691 43.2275 26.7676 43.0159 27.8004C42.9729 28.0299 42.8043 28.2558 42.5748 28.2666L40.1004 28.0012C39.8925 27.9546 39.6629 27.786 39.7203 27.4669C40.2905 24.4689 42.998 23.5652 45.4222 23.5652C46.663 23.5652 48.2839 23.8952 49.2629 24.8347C50.5036 25.993 50.3853 27.5386 50.3853 29.2205V33.1938C50.3853 34.388 50.8802 34.9116 51.3464 35.5571C51.5113 35.7866 51.5472 36.0627 51.3392 36.2348C50.8192 36.6687 49.894 37.4756 49.3848 37.9275L49.3776 37.9203Z" fill="#9CA3AF"/>
  </g>
  <defs>
  <clipPath id="clip0_6_207">
  <rect width="82.7546" height="36.1111" fill="white" transform="translate(39.2937 14.5375)"/>
  </clipPath>
  </defs>
  </svg>
  