<svg width="162" height="66" viewBox="0 0 162 66" fill="none" xmlns="http://www.w3.org/2000/svg">
  <g clip-path="url(#clip0_6_200)">
  <path d="M63.9065 38.9345L65.011 36.353C66.2203 37.2486 67.7977 37.7226 69.3754 37.7226C70.5323 37.7226 71.2684 37.275 71.2684 36.5902C71.242 34.6934 64.3009 36.1686 64.2481 31.4C64.2217 28.9764 66.3779 27.1061 69.4282 27.1061C71.242 27.1061 73.0565 27.5541 74.3446 28.5816L73.3126 31.2182C72.1274 30.4561 70.6635 29.9248 69.2702 29.9248C68.3237 29.9248 67.6925 30.3724 67.6925 30.9524C67.7189 32.8227 74.7131 31.7952 74.7919 36.353C74.7919 38.8293 72.6881 40.5681 69.6906 40.5681C67.4824 40.5681 65.4578 40.0413 63.9061 38.9345H63.9065ZM107.885 35.4182C107.607 35.9136 107.201 36.3259 106.71 36.6128C106.22 36.8997 105.661 37.051 105.093 37.051C103.321 37.051 101.886 35.612 101.886 33.8371C101.886 32.0621 103.321 30.6232 105.093 30.6232C105.661 30.6232 106.22 30.7745 106.71 31.0614C107.201 31.3483 107.607 31.7606 107.885 32.256L110.956 30.5515C109.806 28.496 107.612 27.1061 105.093 27.1061C101.383 27.1061 98.3752 30.1194 98.3752 33.8371C98.3752 37.5544 101.383 40.5681 105.093 40.5681C107.612 40.5681 109.806 39.1781 110.956 37.1226L107.885 35.4182ZM76.7844 40.3045H80.6231V21.503H76.7848L76.7844 40.3045ZM112.895 21.503V40.3045H116.733V34.6716L121.282 40.3045H126.189L120.404 33.6127L125.768 27.3685H121.072L116.733 32.5599V21.503H112.895ZM92.4497 27.3693V28.8976C91.8188 27.8437 90.2675 27.1061 88.6374 27.1061C85.2719 27.1061 82.6164 30.0832 82.6164 33.8239C82.6164 37.5646 85.2719 40.5681 88.6374 40.5681C90.2675 40.5681 91.8188 39.8305 92.4497 38.7765V40.3045H96.2885V27.3693H92.4497ZM92.4497 35.4442C91.8976 36.3662 90.7407 37.0506 89.4526 37.0506C87.6807 37.0506 86.2447 35.612 86.2447 33.8371C86.2447 32.0621 87.6807 30.6232 89.4526 30.6232C90.7407 30.6232 91.8976 31.3344 92.4497 32.2824V35.4442Z" fill="#9CA3AF"/>
  <path d="M43.6346 21.0854C42.3906 21.0854 41.3822 22.096 41.3822 23.3423C41.3819 23.6384 41.4399 23.9316 41.553 24.2053C41.666 24.4789 41.8318 24.7276 42.041 24.9372C42.2501 25.1468 42.4985 25.3131 42.7719 25.4267C43.0454 25.5402 43.3385 25.5988 43.6346 25.5991H45.8873V23.3423C45.8878 22.7443 45.6507 22.1706 45.2283 21.7474C44.8058 21.3241 44.2326 21.086 43.6346 21.0854ZM43.6346 27.1037H37.6279C36.3839 27.1037 35.3756 28.1143 35.3756 29.361C35.3756 30.6072 36.3839 31.6178 37.6279 31.6178H43.6349C44.8786 31.6178 45.8873 30.6072 45.8873 29.361C45.8873 28.1143 44.8786 27.1037 43.6346 27.1037Z" fill="#9CA3AF"/>
  <path d="M57.8999 29.361C57.8999 28.1143 56.8911 27.1037 55.6471 27.1037C54.4031 27.1037 53.3948 28.1143 53.3948 29.361V31.6178H55.6471C56.2451 31.6172 56.8184 31.3791 57.2409 30.9559C57.6633 30.5327 57.9004 29.9589 57.8999 29.361ZM51.8932 29.361V23.3423C51.8937 22.7443 51.6567 22.1706 51.2342 21.7474C50.8118 21.3241 50.2385 21.086 49.6405 21.0854C48.3965 21.0854 47.3882 22.096 47.3882 23.3423V29.3606C47.3882 30.6076 48.3965 31.6182 49.6405 31.6182C50.2385 31.6176 50.8118 31.3795 51.2342 30.9563C51.6567 30.533 51.8937 29.9593 51.8932 29.3613" fill="#9CA3AF"/>
  <path d="M49.6405 43.6558C50.2385 43.6552 50.8118 43.4171 51.2342 42.9939C51.6567 42.5707 51.8937 41.9969 51.8932 41.399C51.8937 40.801 51.6567 40.2273 51.2342 39.804C50.8118 39.3808 50.2385 39.1427 49.6405 39.1421H47.3882V41.399C47.3882 42.6452 48.3965 43.6558 49.6405 43.6558ZM49.6405 37.6375H55.6475C56.8911 37.6375 57.8999 36.6269 57.8999 35.3803C57.9004 34.7823 57.6633 34.2086 57.2409 33.7853C56.8184 33.3621 56.2451 33.124 55.6471 33.1234H49.6405C48.3965 33.1234 47.3882 34.134 47.3882 35.3803C47.3879 35.6764 47.4459 35.9696 47.5589 36.2432C47.672 36.5169 47.8378 36.7656 48.0469 36.9752C48.2561 37.1848 48.5045 37.3511 48.7779 37.4647C49.0513 37.5782 49.3444 37.6368 49.6405 37.6371" fill="#9CA3AF"/>
  <path d="M35.3756 35.3803C35.3753 35.6764 35.4333 35.9696 35.5464 36.2432C35.6594 36.5169 35.8252 36.7656 36.0344 36.9752C36.2435 37.1848 36.4919 37.3511 36.7653 37.4647C37.0388 37.5782 37.3319 37.6368 37.628 37.6371C38.2259 37.6365 38.7992 37.3984 39.2217 36.9752C39.6441 36.552 39.8812 35.9783 39.8807 35.3803V33.1234H37.628C36.3839 33.1234 35.3756 34.134 35.3756 35.3803ZM41.3822 35.3803V41.3986C41.3822 42.6452 42.3906 43.6558 43.6346 43.6558C44.2326 43.6552 44.8058 43.4171 45.2283 42.9939C45.6507 42.5707 45.8878 41.9969 45.8873 41.399V35.3803C45.8876 35.0842 45.8295 34.7909 45.7165 34.5172C45.6034 34.2435 45.4376 33.9948 45.2284 33.7852C45.0192 33.5757 44.7708 33.4093 44.4973 33.2958C44.2238 33.1822 43.9307 33.1237 43.6346 33.1234C42.3906 33.1234 41.3822 34.134 41.3822 35.3803Z" fill="#9CA3AF"/>
  </g>
  <defs>
  <clipPath id="clip0_6_200">
  <rect width="91.0301" height="36.1111" fill="white" transform="translate(35.3754 14.5375)"/>
  </clipPath>
  </defs>
  </svg>
  