<svg width="162" height="66" viewBox="0 0 162 66" fill="none" xmlns="http://www.w3.org/2000/svg">
  <g clip-path="url(#clip0_6_194)">
  <path d="M44.5217 16.8537C35.7964 16.8537 28.7228 23.9271 28.7228 32.6524C28.7228 41.3781 35.7964 48.4509 44.5217 48.4509C53.2479 48.4509 60.3208 41.3781 60.3208 32.6524C60.3208 23.9276 53.2479 16.8544 44.5215 16.8544L44.5217 16.8537ZM51.767 39.6399C51.484 40.104 50.8765 40.2512 50.4124 39.9663C46.703 37.7005 42.0333 37.1874 36.5338 38.4438C36.0039 38.5646 35.4757 38.2325 35.3549 37.7024C35.2336 37.1723 35.5643 36.644 36.0956 36.5233C42.1138 35.1483 47.2761 35.7403 51.4406 38.2854C51.9047 38.5702 52.0518 39.1758 51.767 39.6399ZM53.7007 35.3381C53.3442 35.9177 52.5857 36.1007 52.0066 35.7441C47.7598 33.1338 41.2864 32.3779 36.2633 33.9026C35.6119 34.0994 34.9238 33.7323 34.7261 33.082C34.5299 32.4305 34.8972 31.7438 35.5475 31.5457C41.2852 29.8048 48.4183 30.6481 53.2951 33.6449C53.8743 34.0015 54.0573 34.7599 53.7007 35.3383V35.3381ZM53.8667 30.8586C48.7748 27.8342 40.3738 27.5561 35.5123 29.0316C34.7316 29.2684 33.906 28.8277 33.6694 28.047C33.4328 27.266 33.8732 26.441 34.6544 26.2036C40.2352 24.5095 49.5125 24.8368 55.3749 28.317C56.0786 28.7337 56.3088 29.6406 55.8918 30.3419C55.4768 31.0441 54.5674 31.2755 53.8675 30.8586H53.8667ZM71.7064 31.4382C68.9784 30.7877 68.4935 30.3311 68.4935 29.3718C68.4935 28.4655 69.3462 27.8555 70.6159 27.8555C71.846 27.8555 73.0647 28.3187 74.3438 29.2722C74.3816 29.301 74.4306 29.3125 74.4778 29.305C74.5268 29.2978 74.5683 29.2716 74.5966 29.2322L75.9286 27.3546C75.9833 27.2773 75.9682 27.1707 75.8946 27.1116C74.3721 25.8904 72.6591 25.2967 70.6555 25.2967C67.7106 25.2967 65.6523 27.0643 65.6523 29.5933C65.6523 32.3052 67.4276 33.2655 70.4952 34.0068C73.1043 34.608 73.5458 35.1117 73.5458 36.012C73.5458 37.01 72.6553 37.6307 71.2215 37.6307C69.6292 37.6307 68.3294 37.093 66.8767 35.8366C66.8409 35.8045 66.7918 35.7913 66.7465 35.7932C66.6975 35.7969 66.6541 35.8196 66.6239 35.8554L65.1297 37.6326C65.0675 37.7081 65.075 37.8175 65.1467 37.8816C66.8371 39.3909 68.9161 40.187 71.1612 40.187C74.3344 40.187 76.3851 38.4533 76.3851 35.7686C76.3908 33.5034 75.0343 32.2488 71.712 31.4406L71.7064 31.4382ZM83.5655 28.7479C82.1902 28.7479 81.062 29.2897 80.13 30.4V29.1503C80.13 29.0516 80.0508 28.9713 79.9527 28.9713H77.5095C77.4114 28.9713 77.3322 29.0516 77.3322 29.1503V43.0358C77.3322 43.1339 77.4114 43.215 77.5095 43.215H79.9527C80.0508 43.215 80.13 43.1339 80.13 43.0358V38.6532C81.062 39.6965 82.1902 40.2078 83.5655 40.2078C86.1219 40.2078 88.7103 38.2401 88.7103 34.4784C88.714 30.716 86.1256 28.7477 83.5674 28.7477L83.5655 28.7479ZM85.869 34.4784C85.869 36.3931 84.6899 37.7307 82.9995 37.7307C81.3299 37.7307 80.0697 36.3327 80.0697 34.4784C80.0697 32.6239 81.3299 31.2263 82.9995 31.2263C84.6616 31.2261 85.869 32.5935 85.869 34.4782V34.4784ZM95.3416 28.7479C92.0495 28.7479 89.4706 31.2827 89.4706 34.5193C89.4706 37.7213 92.0326 40.2286 95.302 40.2286C98.6054 40.2286 101.192 37.7024 101.192 34.4784C101.192 31.2654 98.6224 28.7483 95.3416 28.7483V28.7479ZM95.3416 37.7496C93.5909 37.7496 92.2703 36.3422 92.2703 34.4775C92.2703 32.6043 93.5456 31.245 95.302 31.245C97.0641 31.245 98.3923 32.6518 98.3923 34.5184C98.3923 36.3912 97.1094 37.7496 95.3416 37.7496ZM108.221 28.9713H105.533V26.2232C105.533 26.1248 105.454 26.0444 105.356 26.0444H102.913C102.814 26.0444 102.733 26.1248 102.733 26.2232V28.9713H101.56C101.462 28.9713 101.383 29.0516 101.383 29.1503V31.2495C101.383 31.348 101.462 31.4285 101.56 31.4285H102.733V36.861C102.733 39.0551 103.826 40.1682 105.982 40.1682C106.857 40.1682 107.584 39.9871 108.269 39.5984C108.325 39.5682 108.359 39.5079 108.359 39.4437V37.4439C108.359 37.3836 108.327 37.3251 108.274 37.293C108.221 37.2591 108.155 37.2572 108.101 37.2855C107.631 37.5213 107.176 37.6307 106.667 37.6307C105.884 37.6307 105.533 37.2741 105.533 36.478V31.4295H108.221C108.32 31.4295 108.399 31.3491 108.399 31.2504V29.1514C108.403 29.0528 108.323 28.9724 108.223 28.9724L108.221 28.9713ZM117.586 28.982V28.6445C117.586 27.6516 117.968 27.2088 118.82 27.2088C119.33 27.2088 119.739 27.3099 120.198 27.4627C120.254 27.4805 120.313 27.4716 120.358 27.4378C120.405 27.4041 120.431 27.3499 120.431 27.2926V25.2343C120.431 25.1556 120.382 25.086 120.305 25.0628C119.822 24.9189 119.203 24.7711 118.275 24.7711C116.021 24.7711 114.826 26.0416 114.826 28.4438V28.9607H113.653C113.555 28.9607 113.474 29.0411 113.474 29.1395V31.2495C113.474 31.348 113.555 31.4285 113.653 31.4285H114.826V39.806C114.826 39.9059 114.908 39.9852 115.006 39.9852H117.447C117.547 39.9852 117.626 39.9059 117.626 39.806V31.4291H119.907L123.401 39.806C123.005 40.6851 122.614 40.8606 122.082 40.8606C121.652 40.8606 121.197 40.7323 120.735 40.4776C120.692 40.4549 120.639 40.4512 120.594 40.4644C120.547 40.4814 120.507 40.5153 120.488 40.5606L119.66 42.3774C119.62 42.4642 119.654 42.5642 119.737 42.6094C120.601 43.0773 121.38 43.2773 122.344 43.2773C124.148 43.2773 125.146 42.4359 126.023 40.1757L130.261 29.2265C130.283 29.1714 130.276 29.1092 130.242 29.0603C130.21 29.0118 130.155 28.9826 130.096 28.9826H127.553C127.476 28.9826 127.408 29.0311 127.384 29.1026L124.778 36.5422L121.926 29.0977C121.899 29.0284 121.833 28.9826 121.76 28.9826H117.586V28.982ZM112.157 28.9713H109.714C109.616 28.9713 109.534 29.0516 109.534 29.1503V39.806C109.534 39.9059 109.616 39.9852 109.714 39.9852H112.157C112.255 39.9852 112.336 39.9059 112.336 39.806V29.151C112.336 29.0524 112.257 28.972 112.157 28.972V28.9713ZM110.949 24.1191C109.982 24.1191 109.197 24.9024 109.197 25.8701C109.197 26.8383 109.982 27.6225 110.949 27.6225C111.917 27.6225 112.7 26.8383 112.7 25.8701C112.7 24.9026 111.915 24.1191 110.949 24.1191ZM132.347 32.3975C131.381 32.3975 130.628 31.6212 130.628 30.6784C130.628 29.7357 131.391 28.9505 132.357 28.9505C133.323 28.9505 134.075 29.7266 134.075 30.6686C134.075 31.6114 133.313 32.3975 132.347 32.3975ZM132.357 29.1214C131.476 29.1214 130.81 29.8214 130.81 30.6784C130.81 31.5351 131.472 32.2256 132.347 32.2256C133.228 32.2256 133.894 31.5263 133.894 30.6686C133.894 29.8119 133.232 29.1214 132.357 29.1214ZM132.738 30.8454L133.224 31.5261H132.813L132.375 30.9016H132V31.5261H131.657V29.7217H132.46C132.881 29.7217 133.157 29.9362 133.157 30.2973C133.158 30.5932 132.987 30.7739 132.74 30.8454H132.738ZM132.447 30.0313H132V30.602H132.447C132.67 30.602 132.804 30.4928 132.804 30.3164C132.804 30.1308 132.67 30.0313 132.447 30.0313Z" fill="#9CA3AF"/>
  </g>
  <defs>
  <clipPath id="clip0_6_194">
  <rect width="105.324" height="36.1111" fill="white" transform="translate(28.6669 14.5375)"/>
  </clipPath>
  </defs>
  </svg>
  