<svg width="162" height="66" viewBox="0 0 162 66" fill="none" xmlns="http://www.w3.org/2000/svg">
  <g clip-path="url(#clip0_6_191)">
  <path d="M44.438 41.1657L51.8516 29.6298H45.3162C45.2608 29.2975 45.2371 28.9336 45.2371 28.53C45.2371 28.1424 45.2608 27.7863 45.3162 27.4619H55.8947L56.0292 27.818L48.5602 39.3775H55.5624C55.6178 39.7415 55.6415 40.1213 55.6415 40.5011C55.6415 40.865 55.6178 41.2131 55.5624 41.5455H44.5725L44.438 41.1657Z" fill="#9CA3AF"/>
  <path d="M65.8324 32.2647C65.8324 31.1808 65.5554 30.437 65.0095 30.0098C64.4636 29.5904 63.6644 29.3768 62.62 29.3768C61.9792 29.3768 61.3778 29.4243 60.824 29.5271C60.2622 29.63 59.7242 29.7566 59.1862 29.9227C58.8381 29.3214 58.664 28.5935 58.664 27.7548C59.2891 27.557 59.9695 27.3988 60.7211 27.288C61.4728 27.1772 62.1928 27.1218 62.8891 27.1218C64.7168 27.1218 66.1093 27.5412 67.0666 28.372C68.0161 29.2027 68.4987 30.5399 68.4987 32.3676V41.1817C67.8579 41.3241 67.0825 41.4823 66.1647 41.6326C65.2469 41.7909 64.3132 41.8621 63.3638 41.8621C62.4697 41.8621 61.6548 41.783 60.9348 41.6168C60.2148 41.4507 59.5976 41.1896 59.0912 40.8177C58.5849 40.4537 58.1972 39.9869 57.9203 39.4173C57.6433 38.8476 57.5088 38.1592 57.5088 37.3601C57.5088 36.5768 57.6671 35.8805 57.9915 35.2871C58.308 34.6937 58.7431 34.1953 59.297 33.8076C59.8429 33.412 60.4759 33.1192 61.1959 32.9293C61.908 32.7394 62.6596 32.6366 63.4508 32.6366C64.0363 32.6366 64.5189 32.6524 64.8908 32.6761C65.2627 32.6999 65.5792 32.7394 65.8403 32.7711V32.2647H65.8324ZM65.8324 34.9311C65.5554 34.8915 65.2073 34.8599 64.788 34.8203C64.3686 34.7808 64.0126 34.7649 63.7198 34.7649C62.5805 34.7649 61.7181 34.9786 61.1247 35.3979C60.5313 35.8172 60.2306 36.4581 60.2306 37.3205C60.2306 37.8665 60.3334 38.3016 60.5313 38.6102C60.7291 38.9188 60.9822 39.1562 61.2829 39.3223C61.5836 39.4885 61.9159 39.5913 62.2877 39.623C62.6517 39.6625 62.9998 39.6784 63.3321 39.6784C63.7515 39.6784 64.1866 39.6546 64.6376 39.6071C65.0886 39.5597 65.4842 39.4964 65.8324 39.4014V34.9311Z" fill="#9CA3AF"/>
  <path d="M71.4657 27.4625C71.6477 27.4229 71.8376 27.3992 72.0275 27.3834C72.2174 27.3676 72.4152 27.3597 72.6209 27.3597C72.8029 27.3597 72.9927 27.3676 73.1985 27.3834C73.3963 27.3992 73.5941 27.4309 73.776 27.4625C73.7919 27.5021 73.8156 27.6128 73.8473 27.8027C73.871 27.9926 73.9026 28.1983 73.9264 28.4199C73.9501 28.6414 73.9818 28.8471 74.0055 29.0528C74.0292 29.2586 74.0451 29.3852 74.0451 29.4405C74.227 29.1478 74.4486 28.863 74.7018 28.586C74.9549 28.3091 75.2635 28.0638 75.6196 27.8423C75.9756 27.6208 76.3791 27.4467 76.8301 27.3201C77.2811 27.1935 77.7796 27.1302 78.3255 27.1302C79.1484 27.1302 79.9158 27.2647 80.62 27.5416C81.3242 27.8186 81.9255 28.2379 82.4319 28.8155C82.9383 29.3931 83.3259 30.1289 83.6108 31.015C83.8956 31.9012 84.038 32.9535 84.038 34.1641C84.038 36.5852 83.3813 38.4762 82.0758 39.837C80.7624 41.1979 78.911 41.8863 76.5136 41.8863C76.1101 41.8863 75.6987 41.8625 75.2793 41.8072C74.86 41.7518 74.4881 41.6806 74.1796 41.5856V48.0419C73.958 48.0815 73.7286 48.1052 73.4754 48.121C73.2301 48.1368 73.0007 48.1447 72.8029 48.1447C72.6051 48.1447 72.3756 48.1368 72.1303 48.121C71.8851 48.1052 71.6556 48.0735 71.4578 48.0419V27.4625H71.4657ZM74.1875 39.2436C74.5356 39.3702 74.8917 39.4652 75.2556 39.5206C75.6196 39.5759 76.0943 39.5997 76.6877 39.5997C77.3444 39.5997 77.9536 39.4968 78.4996 39.2832C79.0455 39.0696 79.5202 38.7452 79.9158 38.31C80.3114 37.8669 80.62 37.3131 80.8495 36.6485C81.0789 35.9838 81.1897 35.1847 81.1897 34.2748C81.1897 32.8111 80.9207 31.648 80.3826 30.7856C79.8446 29.9232 78.9585 29.4959 77.7321 29.4959C77.2732 29.4959 76.838 29.575 76.4108 29.7412C75.9914 29.9074 75.6117 30.1526 75.2873 30.4849C74.9549 30.8172 74.6938 31.2287 74.4881 31.735C74.2824 32.2414 74.1875 32.8348 74.1875 33.5311V39.2436Z" fill="#9CA3AF"/>
  <path d="M87.4244 29.5982H85.6363C85.5967 29.4479 85.573 29.2817 85.5571 29.0918C85.5413 28.9019 85.5334 28.712 85.5334 28.53C85.5334 28.3481 85.5413 28.1582 85.5571 27.9683C85.573 27.7784 85.6046 27.6043 85.6363 27.4619H90.0908V41.5534C89.893 41.5929 89.6635 41.6167 89.4183 41.6325C89.173 41.6483 88.9435 41.6562 88.7457 41.6562C88.5637 41.6562 88.3501 41.6483 88.0969 41.6325C87.8517 41.6167 87.6222 41.585 87.4244 41.5534V29.5982Z" fill="#9CA3AF"/>
  <path d="M95.9378 35.1766C95.9774 36.7115 96.373 37.8429 97.1325 38.555C97.8921 39.2671 99.0156 39.6232 100.495 39.6232C101.793 39.6232 103.035 39.3937 104.206 38.9348C104.356 39.2117 104.475 39.544 104.562 39.9397C104.657 40.3353 104.704 40.7229 104.728 41.1106C104.127 41.3638 103.462 41.5616 102.734 41.6882C102.014 41.8148 101.207 41.8781 100.329 41.8781C99.0473 41.8781 97.9475 41.6961 97.0297 41.3401C96.1119 40.9841 95.3602 40.4777 94.7668 39.8289C94.1734 39.1801 93.7382 38.4126 93.4613 37.5185C93.1844 36.6324 93.0499 35.6592 93.0499 34.5911C93.0499 33.5467 93.1844 32.5735 93.4455 31.6636C93.7066 30.7537 94.118 29.9704 94.664 29.2979C95.2099 28.6333 95.9062 28.0952 96.7369 27.7075C97.5677 27.3119 98.5567 27.1141 99.6881 27.1141C100.661 27.1141 101.508 27.2803 102.244 27.6126C102.98 27.9449 103.589 28.3959 104.087 28.9735C104.578 29.5511 104.958 30.2394 105.211 31.0306C105.464 31.8297 105.598 32.6922 105.598 33.6258C105.598 33.879 105.591 34.1559 105.567 34.4328C105.551 34.7177 105.527 34.9629 105.511 35.1607H95.9378V35.1766ZM102.916 33.1432C102.916 32.6289 102.845 32.1383 102.711 31.6715C102.576 31.2047 102.37 30.8012 102.109 30.453C101.84 30.1049 101.508 29.828 101.096 29.6144C100.685 29.4007 100.195 29.2979 99.6248 29.2979C98.5092 29.2979 97.6547 29.6381 97.0534 30.3106C96.46 30.9911 96.0961 31.9326 95.9695 33.1432H102.916Z" fill="#9CA3AF"/>
  <path d="M108.605 27.4619C108.803 27.4224 109.001 27.3986 109.183 27.3828C109.365 27.367 109.555 27.3591 109.76 27.3591C109.958 27.3591 110.164 27.367 110.362 27.3828C110.559 27.3986 110.749 27.4303 110.908 27.4619C110.963 27.7388 111.018 28.0949 111.074 28.5459C111.129 28.9969 111.153 29.3766 111.153 29.6852C111.541 29.0602 112.047 28.5221 112.68 28.0632C113.313 27.6043 114.12 27.3749 115.109 27.3749C115.259 27.3749 115.41 27.3828 115.56 27.3907C115.718 27.3986 115.845 27.4144 115.955 27.4303C115.995 27.5964 116.019 27.7705 116.035 27.9525C116.05 28.1344 116.058 28.3243 116.058 28.53C116.058 28.7516 116.043 28.981 116.019 29.2184C115.995 29.4558 115.955 29.6852 115.924 29.9068C115.773 29.8672 115.623 29.8514 115.473 29.8514C115.315 29.8514 115.196 29.8514 115.101 29.8514C114.61 29.8514 114.136 29.9226 113.685 30.0571C113.234 30.1916 112.83 30.4369 112.474 30.785C112.118 31.1331 111.833 31.6079 111.62 32.2171C111.406 32.8184 111.303 33.6017 111.303 34.5512V41.5534C111.105 41.5929 110.876 41.6167 110.631 41.6325C110.385 41.6483 110.156 41.6562 109.958 41.6562C109.76 41.6562 109.531 41.6483 109.286 41.6325C109.04 41.6167 108.803 41.585 108.581 41.5534V27.4619H108.605Z" fill="#9CA3AF"/>
  <path d="M92.6779 19.1703H90.0195L91.9025 17.2873C91.7522 17.0815 91.5861 16.8837 91.412 16.7018C91.23 16.5198 91.0401 16.3536 90.8265 16.2112L88.9434 18.0943V15.4358C88.6981 15.3963 88.445 15.3725 88.1839 15.3725H88.1759C87.9148 15.3725 87.6617 15.3963 87.4164 15.4358V18.0943L85.5333 16.2112C85.3276 16.3615 85.1298 16.5277 84.9478 16.7018C84.7658 16.8837 84.6076 17.0736 84.4573 17.2873L86.3482 19.1703H83.6898C83.6898 19.1703 83.6265 19.6688 83.6265 19.9299C83.6265 20.191 83.6502 20.4442 83.6898 20.6895H86.3482L84.4652 22.5725C84.7579 22.984 85.1219 23.3479 85.5412 23.6486L87.4243 21.7655V24.424C87.6696 24.4635 87.9228 24.4873 88.1839 24.4873H88.1918C88.4529 24.4873 88.7061 24.4635 88.9513 24.424V21.7655L90.8344 23.6486C91.0401 23.4983 91.2379 23.3321 91.4199 23.158C91.6019 22.9761 91.768 22.7862 91.9105 22.5725L90.0274 20.6895H92.6858C92.7254 20.4442 92.7491 20.191 92.7491 19.9299V19.922C92.7412 19.6688 92.7254 19.4156 92.6779 19.1703ZM89.3232 19.9378C89.3232 20.278 89.2599 20.6024 89.1491 20.9031C88.8485 21.0139 88.5241 21.0772 88.1839 21.0772C87.8436 21.0772 87.5192 21.0139 87.2186 20.9031C87.1078 20.6024 87.0445 20.278 87.0445 19.9378V19.9299C87.0445 19.5897 87.1078 19.2653 87.2186 18.9646C87.5192 18.8539 87.8436 18.7906 88.1839 18.7906C88.5241 18.7906 88.8485 18.8539 89.1491 18.9646C89.2599 19.2653 89.3232 19.5897 89.3232 19.9378Z" fill="#9CA3AF"/>
  </g>
  <defs>
  <clipPath id="clip0_6_191">
  <rect width="72.2222" height="36.1111" fill="white" transform="translate(44.4371 14.5375)"/>
  </clipPath>
  </defs>
  </svg>
  