<svg width="162" height="66" viewBox="0 0 162 66" fill="none" xmlns="http://www.w3.org/2000/svg">
  <g clip-path="url(#clip0_6_197)">
  <path fill-rule="evenodd" clip-rule="evenodd" d="M104.211 30.0349C104.493 30.5207 104.585 31.0733 104.615 31.6946L104.655 32.5226V38.313L104.696 39.1419C104.778 40.4957 105.776 41.4967 107.14 41.5818L107.965 41.6227V32.5226L108.006 31.6946C108.039 31.0802 108.131 30.5172 108.417 30.028C108.708 29.5262 109.126 29.1099 109.629 28.8209C110.132 28.5319 110.702 28.3803 111.283 28.3813C111.863 28.3824 112.432 28.536 112.934 28.8269C113.437 29.1178 113.853 29.5356 114.143 30.0384C114.424 30.5241 114.512 31.0872 114.546 31.6946L114.587 32.52V38.313L114.627 39.1419C114.713 40.5027 115.703 41.5036 117.072 41.5818L117.896 41.6227V31.6946C117.896 29.939 117.199 28.2553 115.958 27.0137C114.717 25.7721 113.033 25.0742 111.278 25.0735C110.338 25.0725 109.409 25.272 108.553 25.6588C107.697 26.0455 106.933 26.6106 106.312 27.3161C105.691 26.6108 104.927 26.0459 104.071 25.6591C103.215 25.2722 102.286 25.0723 101.346 25.0726C99.9716 25.0726 98.6961 25.4897 97.6395 26.21C96.9948 25.4906 95.5524 25.0726 94.7243 25.0726V41.6227L95.5524 41.5818C96.9374 41.4906 97.9384 40.5166 97.9923 39.1419L98.0366 38.313V32.5226L98.0774 31.6946C98.1122 31.0698 98.1991 30.5207 98.4815 30.0315C98.773 29.53 99.191 29.1138 99.6937 28.8244C100.196 28.535 100.766 28.3826 101.346 28.3823C101.927 28.3824 102.497 28.5352 103 28.8252C103.503 29.1153 103.92 29.5325 104.211 30.0349ZM47.5558 41.5827L48.3838 41.6227H60.7961L60.7553 40.7972C60.6432 39.4365 59.6796 38.4425 58.3146 38.3539L57.4865 38.313H50.04L59.9681 28.3814L59.9272 27.5568C59.8629 26.1822 58.8585 25.1891 57.4865 25.1135L56.6584 25.0761L44.2461 25.0726L44.2869 25.9007C44.3955 27.2484 45.3731 28.2632 46.7268 28.3414L47.5558 28.3823H55.0023L45.0742 38.3139L45.115 39.1419C45.1967 40.5061 46.1811 41.4941 47.5558 41.5818V41.5827ZM91.4755 27.4951C92.244 28.2635 92.8537 29.1758 93.2696 30.1798C93.6856 31.1839 93.8997 32.26 93.8997 33.3468C93.8997 34.4336 93.6856 35.5097 93.2696 36.5137C92.8537 37.5178 92.244 38.43 91.4755 39.1984C89.9227 40.7499 87.8175 41.6214 85.6225 41.6214C83.4275 41.6214 81.3223 40.7499 79.7696 39.1984C76.5381 35.967 76.5381 30.7266 79.7696 27.4951C80.5374 26.727 81.4491 26.1176 82.4524 25.7018C83.4558 25.286 84.5312 25.0719 85.6173 25.0717C86.7052 25.071 87.7825 25.2847 88.7877 25.7007C89.7929 26.1167 90.7063 26.7267 91.4755 27.496V27.4951ZM89.1338 29.8386C90.0646 30.7701 90.5874 32.033 90.5874 33.3498C90.5874 34.6666 90.0646 35.9296 89.1338 36.8611C88.2023 37.7919 86.9394 38.3147 85.6225 38.3147C84.3057 38.3147 83.0428 37.7919 82.1113 36.8611C81.1805 35.9296 80.6576 34.6666 80.6576 33.3498C80.6576 32.033 81.1805 30.7701 82.1113 29.8386C83.0428 28.9078 84.3057 28.3849 85.6225 28.3849C86.9394 28.3849 88.2023 28.9078 89.1338 29.8386ZM68.2496 25.0717C69.3358 25.072 70.4113 25.2863 71.4146 25.7022C72.418 26.1182 73.3296 26.7277 74.0974 27.496C77.3297 30.7266 77.3297 35.9678 74.0974 39.1984C72.5446 40.7499 70.4394 41.6214 68.2444 41.6214C66.0494 41.6214 63.9442 40.7499 62.3915 39.1984C59.16 35.967 59.16 30.7266 62.3915 27.4951C63.1593 26.727 64.0709 26.1176 65.0743 25.7018C66.0777 25.286 67.1531 25.0719 68.2392 25.0717H68.2496ZM71.7557 29.8368C72.6867 30.7684 73.2097 32.0315 73.2097 33.3485C73.2097 34.6656 72.6867 35.9287 71.7557 36.8602C70.8242 37.791 69.5612 38.3138 68.2444 38.3138C66.9276 38.3138 65.6646 37.791 64.7332 36.8602C63.8024 35.9287 63.2795 34.6658 63.2795 33.349C63.2795 32.0321 63.8024 30.7692 64.7332 29.8377C65.6646 28.9069 66.9276 28.3841 68.2444 28.3841C69.5612 28.3841 70.8242 28.9069 71.7557 29.8377V29.8368Z" fill="#9CA3AF"/>
  </g>
  <defs>
  <clipPath id="clip0_6_197">
  <rect width="73.7268" height="36.1111" fill="white" transform="translate(44.2462 14.5375)"/>
  </clipPath>
  </defs>
  </svg>
  